<svg width="1366" height="700" viewBox="0 0 1366 700" fill="none" xmlns="http://www.w3.org/2000/svg">
<g clip-path="url(#clip0_112_18)">
<path d="M1336.08 -12.335H99.9353V683.025H1336.08V-12.335Z" fill="url(#paint0_radial_112_18)"/>
<path d="M413.867 -70.2527L519.658 103.331L511.444 111.545H199.802L101.775 -70.2527H413.867Z" fill="url(#paint1_linear_112_18)"/>
<path d="M418.695 -75.0864L519.658 103.331H208.015L106.604 -75.0864H418.695Z" fill="url(#paint2_radial_112_18)"/>
<path d="M990.27 712.075L889.308 533.662L897.521 525.448L1441.37 533.662L1542.79 712.075H990.27Z" fill="url(#paint3_linear_112_18)"/>
<path d="M998.489 703.862L897.521 525.448H1449.59L1551 703.862H998.489Z" fill="url(#paint4_radial_112_18)"/>
<path d="M1361.6 749.456V-41.2407H785.404L900.476 162.113H968.904L1301.27 749.456H1361.6Z" fill="url(#paint5_radial_112_18)"/>
<path d="M1369.81 741.242V-49.4546H793.618L908.69 153.9H977.117L1309.48 741.242H1369.81Z" fill="url(#paint6_radial_112_18)"/>
<path d="M1357.9 952.908C1533.81 874.399 1571.79 576.298 1442.73 287.081C1313.66 -2.13526 1066.43 -172.947 890.517 -94.4379C714.603 -15.9286 676.624 282.172 805.689 571.389C934.753 860.605 1181.99 1031.42 1357.9 952.908Z" fill="url(#paint7_radial_112_18)"/>
<path d="M161.453 -83.2954L449.121 425.046H517.543L697.725 743.458H-4.46545V-83.2954H161.453Z" fill="url(#paint8_radial_112_18)"/>
<path d="M153.239 -75.0864L440.907 433.26H509.33L689.511 751.672H-12.6791V-75.0864H153.239Z" fill="url(#paint9_radial_112_18)"/>
<path d="M583.272 772.639C744.445 700.708 779.241 427.587 660.992 162.605C542.743 -102.377 316.226 -258.876 155.053 -186.945C-6.1199 -115.015 -40.9162 158.107 77.3333 423.089C195.583 688.071 422.099 844.57 583.272 772.639Z" fill="url(#paint10_radial_112_18)"/>
<path d="M1365.55 154.474H1176.13L1074.62 -24.895L1083.03 -29.6562L1181.76 144.811H1365.55V154.474Z" fill="url(#paint11_radial_112_18)"/>
<path opacity="0.4" d="M1323.76 471.722C1442.16 418.885 1467.72 218.258 1380.85 23.6109C1293.99 -171.036 1127.6 -285.996 1009.21 -233.158C890.816 -180.32 865.256 20.3058 952.119 214.953C1038.98 409.601 1205.37 524.56 1323.76 471.722Z" fill="url(#paint12_radial_112_18)"/>
<path d="M-60 430.348H219.469L369.23 694.996L356.821 702.017L211.154 444.603H-60V430.348Z" fill="url(#paint13_radial_112_18)"/>
<path opacity="0.5" d="M397.311 852.726C513.362 800.933 538.416 604.271 453.27 413.469C368.124 222.667 205.02 109.978 88.9688 161.771C-27.0829 213.565 -52.1367 410.227 33.0096 601.029C118.156 791.831 281.259 904.519 397.311 852.726Z" fill="url(#paint14_radial_112_18)"/>
</g>
<defs>
<radialGradient id="paint0_radial_112_18" cx="0" cy="0" r="1" gradientUnits="userSpaceOnUse" gradientTransform="translate(718.005 335.345) scale(541.367 541.391)">
<stop stop-color="#1D2226"/>
<stop offset="0.4" stop-color="#181D21"/>
<stop offset="0.89" stop-color="#0C0E11"/>
<stop offset="1" stop-color="#080A0D"/>
</radialGradient>
<linearGradient id="paint1_linear_112_18" x1="510.913" y1="20.6463" x2="273.314" y2="20.6463" gradientUnits="userSpaceOnUse">
<stop stop-color="#EB18FB"/>
<stop offset="0.12" stop-color="#B61BE3"/>
<stop offset="0.34" stop-color="#5B1FB9"/>
<stop offset="0.43" stop-color="#3721A8"/>
<stop offset="0.44" stop-color="#3621A3"/>
<stop offset="0.53" stop-color="#291C79"/>
<stop offset="0.62" stop-color="#1E1855"/>
<stop offset="0.72" stop-color="#16163A"/>
<stop offset="0.81" stop-color="#101427"/>
<stop offset="0.9" stop-color="#0C121B"/>
<stop offset="1" stop-color="#0B1217"/>
</linearGradient>
<radialGradient id="paint2_radial_112_18" cx="0" cy="0" r="1" gradientUnits="userSpaceOnUse" gradientTransform="translate(534.303 334.07) scale(717.159 717.191)">
<stop offset="0.21" stop-color="#1D2226"/>
<stop offset="1" stop-color="#0C0E12"/>
</radialGradient>
<linearGradient id="paint3_linear_112_18" x1="1105.4" y1="418.479" x2="1187.49" y2="570.103" gradientUnits="userSpaceOnUse">
<stop stop-color="#2892D3"/>
<stop offset="0.05" stop-color="#2688C4"/>
<stop offset="0.22" stop-color="#1E6490"/>
<stop offset="0.4" stop-color="#174765"/>
<stop offset="0.57" stop-color="#123043"/>
<stop offset="0.73" stop-color="#0E1F2B"/>
<stop offset="0.88" stop-color="#0C151C"/>
<stop offset="1" stop-color="#0B1217"/>
</linearGradient>
<radialGradient id="paint4_radial_112_18" cx="0" cy="0" r="1" gradientUnits="userSpaceOnUse" gradientTransform="translate(2.75882e+06 -265417) rotate(180) scale(973474 265778)">
<stop offset="0.21" stop-color="#1D2226"/>
<stop offset="1" stop-color="#0C0E12"/>
</radialGradient>
<radialGradient id="paint5_radial_112_18" cx="0" cy="0" r="1" gradientUnits="userSpaceOnUse" gradientTransform="translate(1108.27 396.604) scale(345.897 345.912)">
<stop stop-color="#32F7FD"/>
<stop offset="0.17" stop-color="#34A0DB"/>
<stop offset="0.35" stop-color="#3645B6"/>
<stop offset="0.43" stop-color="#3721A8"/>
<stop offset="0.44" stop-color="#3621A3"/>
<stop offset="0.53" stop-color="#291C79"/>
<stop offset="0.62" stop-color="#1E1855"/>
<stop offset="0.72" stop-color="#16163A"/>
<stop offset="0.81" stop-color="#101427"/>
<stop offset="0.9" stop-color="#0C121B"/>
<stop offset="1" stop-color="#0B1217"/>
</radialGradient>
<radialGradient id="paint6_radial_112_18" cx="0" cy="0" r="1" gradientUnits="userSpaceOnUse" gradientTransform="translate(735.611 232.683) scale(837.205 837.242)">
<stop offset="0.24" stop-color="#1D2226"/>
<stop offset="1" stop-color="#0C0E12"/>
</radialGradient>
<radialGradient id="paint7_radial_112_18" cx="0" cy="0" r="1" gradientUnits="userSpaceOnUse" gradientTransform="translate(1125.38 426.702) rotate(-24.0509) scale(352.736 576.439)">
<stop stop-color="#1FEBF2" stop-opacity="0.15"/>
<stop offset="0.41" stop-color="#168A90" stop-opacity="0.08"/>
<stop offset="1" stop-color="#0B1217" stop-opacity="0"/>
</radialGradient>
<radialGradient id="paint8_radial_112_18" cx="0" cy="0" r="1" gradientUnits="userSpaceOnUse" gradientTransform="translate(664345 982919) scale(557680 656608)">
<stop stop-color="#EB18FB"/>
<stop offset="0.12" stop-color="#B61BE3"/>
<stop offset="0.34" stop-color="#5B1FB9"/>
<stop offset="0.43" stop-color="#3721A8"/>
<stop offset="0.44" stop-color="#3621A3"/>
<stop offset="0.53" stop-color="#291C79"/>
<stop offset="0.62" stop-color="#1E1855"/>
<stop offset="0.72" stop-color="#16163A"/>
<stop offset="0.81" stop-color="#101427"/>
<stop offset="0.9" stop-color="#0C121B"/>
<stop offset="1" stop-color="#0B1217"/>
</radialGradient>
<radialGradient id="paint9_radial_112_18" cx="0" cy="0" r="1" gradientUnits="userSpaceOnUse" gradientTransform="translate(549.263 267.446) scale(709.887 709.919)">
<stop offset="0.3" stop-color="#1D2226"/>
<stop offset="1" stop-color="#0C0E12"/>
</radialGradient>
<radialGradient id="paint10_radial_112_18" cx="0" cy="0" r="1" gradientUnits="userSpaceOnUse" gradientTransform="translate(368.569 291.787) rotate(-24.0509) scale(323.182 528.142)">
<stop stop-color="#EB18FB" stop-opacity="0.15"/>
<stop offset="0.42" stop-color="#821590" stop-opacity="0.08"/>
<stop offset="1" stop-color="#0B1217" stop-opacity="0"/>
</radialGradient>
<radialGradient id="paint11_radial_112_18" cx="0" cy="0" r="1" gradientUnits="userSpaceOnUse" gradientTransform="translate(1165.14 119.131) scale(148.636 148.643)">
<stop stop-color="#2C4498"/>
<stop offset="0.22" stop-color="#222C6D"/>
<stop offset="0.43" stop-color="#1A1749"/>
<stop offset="0.52" stop-color="#15153A"/>
<stop offset="0.68" stop-color="#101427"/>
<stop offset="0.84" stop-color="#0C121B"/>
<stop offset="1" stop-color="#0B1217"/>
</radialGradient>
<radialGradient id="paint12_radial_112_18" cx="0" cy="0" r="1" gradientUnits="userSpaceOnUse" gradientTransform="translate(2.01793e+06 2.71794e+06) rotate(-24.0509) scale(230824 620143)">
<stop stop-color="#1FEBF2" stop-opacity="0.15"/>
<stop offset="0.41" stop-color="#168A90" stop-opacity="0.08"/>
<stop offset="1" stop-color="#0B1217" stop-opacity="0"/>
</radialGradient>
<radialGradient id="paint13_radial_112_18" cx="0" cy="0" r="1" gradientUnits="userSpaceOnUse" gradientTransform="translate(235.684 482.496) rotate(180) scale(219.299 219.309)">
<stop stop-color="#541C98"/>
<stop offset="0.24" stop-color="#2F1861"/>
<stop offset="0.42" stop-color="#17163D"/>
<stop offset="0.44" stop-color="#16163A"/>
<stop offset="0.62" stop-color="#101427"/>
<stop offset="0.81" stop-color="#0C121B"/>
<stop offset="1" stop-color="#0B1217"/>
</radialGradient>
<radialGradient id="paint14_radial_112_18" cx="0" cy="0" r="1" gradientUnits="userSpaceOnUse" gradientTransform="translate(1.07469e+06 2.99246e+06) rotate(-24.0509) scale(221790 595877)">
<stop stop-color="#EB18FB" stop-opacity="0.15"/>
<stop offset="0.42" stop-color="#821590" stop-opacity="0.08"/>
<stop offset="1" stop-color="#0B1217" stop-opacity="0"/>
</radialGradient>
<clipPath id="clip0_112_18">
<rect width="1611" height="1218" fill="white" transform="translate(-60 -246)"/>
</clipPath>
</defs>
</svg>
