<svg width="171" height="38" viewBox="0 0 171 38" fill="none" xmlns="http://www.w3.org/2000/svg">
<g filter="url(#filter0_d_110_11)">
<path fill-rule="evenodd" clip-rule="evenodd" d="M106.109 6.12661C105.495 6.26096 104.041 7.1726 102.879 8.15166C100.002 10.5741 98.9092 13.8598 99.2211 19.1535C99.6476 26.4044 102.981 29.9773 109.319 29.9773C113.402 29.9773 116.156 28.5005 117.951 25.346C119.105 23.3184 119.261 22.4336 119.261 17.8975C119.261 12.0623 118.606 10.3996 115.263 7.74191C113.738 6.52915 112.75 6.19405 110.292 6.05506C108.606 5.95932 106.723 5.99174 106.109 6.12661ZM7.14075 18.0118L7.28151 29.7369H9.63621H11.9909L12.1411 24.9975L12.2913 20.2582L16.0656 20.1074L19.8399 19.9565V18.1549V16.3533L16.0462 16.2019L12.2526 16.0506V13.4995V10.9483L16.3079 10.9406C18.538 10.936 20.6782 10.7362 21.0633 10.4959C21.4479 10.256 21.8011 9.27537 21.8482 8.31638L21.933 6.57291L14.4665 6.42981L7 6.28722L7.14075 18.0118ZM24.9036 15.2311C25.0961 22.8819 25.2725 24.3896 26.1469 25.8587C28.0123 28.9931 29.5952 29.7369 34.3988 29.7369C38.0768 29.7369 38.9245 29.5634 40.4373 28.502C43.2734 26.5125 43.6486 24.9445 43.6486 15.0828V6.31553H41.0668H38.485L38.3196 15.1127C38.1595 23.6443 38.1171 23.9402 36.9188 24.893C35.1361 26.3117 32.9608 26.1573 31.6516 24.5199C30.6653 23.2865 30.5669 22.4732 30.5669 15.5487C30.5669 6.85139 30.3482 6.31553 26.8009 6.31553H24.6791L24.9036 15.2311ZM49.0021 18.0015L49.1429 29.7369L50.3736 29.9083C51.0502 30.0025 52.2045 29.9315 52.9381 29.7503L54.2719 29.4208L53.9292 21.0854L53.5859 12.75L57.2493 20.9547C59.2639 25.467 61.2073 29.3431 61.5684 29.5686C61.9294 29.794 63.0885 29.9819 64.1439 29.9866C67.9015 30.002 67.7189 30.6218 67.7189 17.8424V6.31553L66.0182 6.32325C62.7918 6.33818 62.741 6.48282 62.8137 15.438C62.8499 19.9051 62.785 23.3282 62.6693 23.0451C62.5537 22.762 60.8756 18.9399 58.94 14.5516L55.42 6.57291L52.1407 6.41951L48.8614 6.26611L49.0021 18.0015ZM80.0952 7.85413C79.4756 10.9025 79.8456 11.0889 85.7161 10.6863L91.0042 10.3244L89.6369 11.7946C88.885 12.6033 86.2205 16.0331 83.7167 19.4171C80.4028 23.896 79.2422 25.8567 79.4521 26.6237C79.6101 27.2033 79.743 28.083 79.7467 28.5787C79.7535 29.3961 80.4787 29.4795 87.591 29.4795C95.3667 29.4795 95.4348 29.4697 96.2824 28.1962C96.8 27.4195 97.0129 26.4255 96.8214 25.676C96.5305 24.5348 96.3531 24.4735 94.54 24.8879C93.4589 25.135 90.9875 25.3424 89.0488 25.3491L85.5235 25.3615L90.6505 18.541C97.06 10.014 96.6477 10.7661 96.2338 8.3555L95.8832 6.31553H88.1456H80.4081L80.0952 7.85413ZM123.829 18.0015L123.97 29.7369L125.201 29.9083C125.877 30.0025 127.028 29.932 127.757 29.7523L129.084 29.4244L128.731 21.0875L128.379 12.75L131.8 20.4404C133.681 24.6696 135.22 28.1859 135.22 28.2534C135.22 29.0157 137.276 29.9943 138.878 29.9943C142.745 29.9943 142.546 30.6527 142.546 17.8424V6.31553L140.845 6.32325C137.622 6.33818 137.57 6.48437 137.622 15.437C137.648 19.9046 137.584 23.3282 137.48 23.0451C137.376 22.762 135.697 18.9399 133.748 14.5516L130.205 6.57291L126.946 6.41951L123.689 6.26611L123.829 18.0015ZM147.779 17.0888C147.779 26.1959 147.906 27.9867 148.601 28.6708C149.26 29.3189 150.71 29.4795 155.897 29.4795C161.994 29.4795 162.418 29.4131 163.185 28.3352C163.633 27.7062 164 26.7879 164 26.2942C164 25.5097 163.33 25.379 158.636 25.2508L153.273 25.1041L153.114 22.6811L152.956 20.2582L157.039 20.1074L161.122 19.9565V17.8975V15.8385L157.067 15.6882L153.011 15.5379V13.2431V10.9483H157.921C162.604 10.9483 162.841 10.8948 163.033 9.79013C163.144 9.15286 163.155 8.111 163.058 7.47373C162.883 6.33406 162.759 6.31553 155.329 6.31553H147.779V17.0888ZM111.924 11.1481C113.461 12.6604 113.946 15.018 113.679 19.6775C113.434 23.9408 112.073 25.8762 109.319 25.8762C106.615 25.8762 105.307 24.0272 104.997 19.7692C104.854 17.7992 104.9 15.3304 105.1 14.2824C105.546 11.9428 107.503 9.91882 109.319 9.91882C110.064 9.91882 111.237 10.4722 111.924 11.1481Z" fill="url(#paint0_linear_110_11)"/>
</g>
<defs>
<filter id="filter0_d_110_11" x="0" y="0" width="171" height="38" filterUnits="userSpaceOnUse" color-interpolation-filters="sRGB">
<feFlood flood-opacity="0" result="BackgroundImageFix"/>
<feColorMatrix in="SourceAlpha" type="matrix" values="0 0 0 0 0 0 0 0 0 0 0 0 0 0 0 0 0 0 127 0" result="hardAlpha"/>
<feOffset dy="1"/>
<feGaussianBlur stdDeviation="3.5"/>
<feComposite in2="hardAlpha" operator="out"/>
<feColorMatrix type="matrix" values="0 0 0 0 0.133333 0 0 0 0 0.0745098 0 0 0 0 0.184314 0 0 0 1 0"/>
<feBlend mode="normal" in2="BackgroundImageFix" result="effect1_dropShadow_110_11"/>
<feBlend mode="normal" in="SourceGraphic" in2="effect1_dropShadow_110_11" result="shape"/>
</filter>
<linearGradient id="paint0_linear_110_11" x1="74" y1="-14" x2="79.0069" y2="53.4252" gradientUnits="userSpaceOnUse">
<stop stop-color="#FF4747"/>
<stop offset="0.0001" stop-color="#FF4747"/>
<stop offset="1" stop-color="#CF46FF"/>
</linearGradient>
</defs>
</svg>
