<svg width="30" height="30" viewBox="0 0 30 30" fill="none" xmlns="http://www.w3.org/2000/svg">
<path d="M15 30C6.7155 30 0 23.2845 0 15C0 6.7155 6.7155 0 15 0C23.2845 0 30 6.7155 30 15C30 23.2845 23.2845 30 15 30ZM12.933 9.6225C12.8427 9.56227 12.7378 9.52765 12.6294 9.52233C12.521 9.51701 12.4132 9.54119 12.3175 9.59229C12.2217 9.64339 12.1416 9.71951 12.0857 9.81252C12.0298 9.90554 12.0002 10.012 12 10.1205V19.8795C12.0002 19.988 12.0298 20.0945 12.0857 20.1875C12.1416 20.2805 12.2217 20.3566 12.3175 20.4077C12.4132 20.4588 12.521 20.483 12.6294 20.4777C12.7378 20.4723 12.8427 20.4377 12.933 20.3775L20.2515 15.4995C20.3338 15.4447 20.4013 15.3705 20.448 15.2833C20.4947 15.1962 20.5191 15.0989 20.5191 15C20.5191 14.9011 20.4947 14.8038 20.448 14.7167C20.4013 14.6295 20.3338 14.5553 20.2515 14.5005L12.9315 9.6225H12.933Z" fill="white"/>
</svg>
